<?xml version="1.0" encoding="UTF-8"?>
<svg width="15px" height="9px" viewBox="0 0 15 9" version="1.1" xmlns="http://www.w3.org/2000/svg" xmlns:xlink="http://www.w3.org/1999/xlink">
    <!-- Generator: Sketch 47.1 (45422) - http://www.bohemiancoding.com/sketch -->
    <title>icon_arrow-alt</title>
    <desc>Created with Sketch.</desc>
    <defs></defs>
    <g id="Page-1" stroke="none" stroke-width="1" fill="none" fill-rule="evenodd">
        <g id="icon_arrow-alt" fill-rule="nonzero" fill="#FFFFFF">
            <rect id="Rectangle" x="0" y="4" width="14" height="1.11000001" rx="0.555000005"></rect>
            <path d="M10.1576506,0.161067971 C10.3674845,-0.0554228993 10.7107495,-0.0522690519 10.9184662,0.162037482 L14.7159666,4.08001243 C14.9263195,4.29703875 14.9282031,4.64696453 14.7169063,4.86496473 L14.7169063,4.86496473 C14.5070723,5.08145561 14.1638074,5.07830176 13.9560906,4.86399522 L10.1585903,0.946020275 C9.94823737,0.728993959 9.94635373,0.379068176 10.1576506,0.161067971" id="Rectangle-7"></path>
            <path d="M10.1561153,8.86654878 C9.94628131,8.65005791 9.94933818,8.29590301 10.157055,8.08159648 L13.9545553,4.16362153 C14.1649082,3.94659521 14.5040741,3.94465181 14.7153709,4.16265202 L14.7153709,4.16265202 C14.9252049,4.37914289 14.922148,4.73329779 14.7144312,4.94760432 L10.9169309,8.86557927 C10.706578,9.08260559 10.3674121,9.08454899 10.1561153,8.86654878" id="Rectangle-7"></path>
        </g>
    </g>
</svg>