<?xml version="1.0" encoding="UTF-8"?>
<svg width="310px" height="122px" viewBox="0 0 310 122" version="1.1" xmlns="http://www.w3.org/2000/svg" xmlns:xlink="http://www.w3.org/1999/xlink">
    <!-- Generator: Sketch 48.2 (47327) - http://www.bohemiancoding.com/sketch -->
    <title>zero_logo</title>
    <desc>Created with Sketch.</desc>
    <defs></defs>
    <g id="Page-1" stroke="none" stroke-width="1" fill="none" fill-rule="evenodd">
        <g id="zero_logo" transform="translate(0.000000, 0.000000)" fill="#FA3C2E" fill-rule="nonzero">
            <path d="M68.3118557,20.8512736 L29.2622423,64.4585045 L68.3118557,64.4585045 L68.3118557,85.3097781 L0,85.3097781 L0,64.4585045 L0.099871134,64.4585045 L41.2467784,20.7510271 L1.29832474,20.7510271 L1.29832474,0 L68.3118557,0 L68.3118557,20.8512736 Z M136.923325,85.3097781 L79.2976804,85.3097781 L79.2976804,0.200493016 L135.824742,0.200493016 L135.824742,18.6458505 L100.969716,18.6458505 L100.969716,33.5825801 L130.33183,33.5825801 L130.33183,52.0279376 L100.969716,52.0279376 L100.969716,66.9646672 L136.923325,66.9646672 L136.923325,85.3097781 Z M218.318299,85.3097781 L196.646263,85.3097781 L183.263531,53.2308956 L169.481314,53.2308956 L169.481314,85.3097781 L149.207474,85.3097781 L149.207474,0.200493016 L189.655284,0.200493016 C204.136598,0.200493016 216.021263,12.1298274 216.021263,26.6655711 C216.021263,35.8882498 211.227448,44.1084634 204.036727,48.9202958 L218.318299,85.3097781 Z M188.856314,17.6433854 L168.981959,17.6433854 L168.981959,35.6877568 L188.856314,35.6877568 C193.250644,35.1865242 196.746134,31.3771569 196.746134,26.5653246 C196.746134,21.8537387 193.350515,18.0443714 188.856314,17.6433854 Z M310,43.3064914 C310,66.9646672 290.824742,86.2119967 267.255155,86.2119967 C243.485825,86.2119967 224.310567,66.9646672 224.310567,43.3064914 C224.310567,19.4478225 243.485825,0.200493016 267.255155,0.200493016 C290.824742,0.200493016 310,19.4478225 310,43.3064914 Z M289.226804,43.3064914 C289.226804,31.0764174 279.239691,21.0517666 267.155284,21.0517666 C254.971005,21.0517666 244.983892,31.0764174 244.983892,43.3064914 C244.983892,55.4363188 254.971005,65.4609696 267.155284,65.4609696 C279.339562,65.4609696 289.226804,55.4363188 289.226804,43.3064914 Z M0,103.654889 L68.7113402,103.654889 L68.7113402,122 L0,122 L0,103.654889 Z" id="Shape"></path>
        </g>
    </g>
</svg>